<svg width="19" height="18" viewBox="0 0 19 18" fill="none" xmlns="http://www.w3.org/2000/svg">
<path fill-rule="evenodd" clip-rule="evenodd" d="M2.84008 6.85598C4.63115 10.7542 7.8128 13.8435 11.7621 15.519L11.7741 15.524L12.5381 15.864C13.01 16.0744 13.5399 16.116 14.0389 15.9818C14.5379 15.8476 14.9754 15.5458 15.2781 15.127L16.5521 13.364C16.5895 13.3121 16.6056 13.2477 16.5971 13.1843C16.5885 13.1209 16.5559 13.0631 16.5061 13.023L14.2821 11.228C14.2558 11.2068 14.2256 11.1912 14.1931 11.182C14.1607 11.1728 14.1267 11.1703 14.0933 11.1746C14.0598 11.1789 14.0276 11.1899 13.9985 11.207C13.9694 11.2241 13.9441 11.2469 13.9241 11.274L13.0581 12.442C12.9561 12.5798 12.8099 12.6785 12.6439 12.7216C12.478 12.7647 12.3023 12.7497 12.1461 12.679C9.18782 11.3375 6.81751 8.96724 5.47608 6.00898C5.40538 5.85277 5.39035 5.67706 5.43347 5.51111C5.47659 5.34516 5.57528 5.199 5.71308 5.09698L6.88008 4.22998C6.90719 4.20993 6.92998 4.18461 6.94705 4.15554C6.96413 4.12646 6.97515 4.09423 6.97945 4.06079C6.98374 4.02734 6.98123 3.99338 6.97206 3.96093C6.96289 3.92848 6.94725 3.89822 6.92608 3.87198L5.13208 1.64798C5.09194 1.59811 5.03419 1.56554 4.97075 1.55698C4.90731 1.54842 4.843 1.56452 4.79108 1.60198L3.01808 2.88198C2.59647 3.18608 2.29318 3.62679 2.15974 4.12921C2.0263 4.63163 2.07094 5.16475 2.28608 5.63797L2.84008 6.85598ZM11.1701 16.897C6.8794 15.0747 3.423 11.717 1.47708 7.48098L1.47508 7.47898L0.921076 6.25898C0.562496 5.47041 0.487985 4.58202 0.710201 3.74474C0.932418 2.90747 1.43766 2.17295 2.14008 1.66598L3.91308 0.385975C4.27621 0.123896 4.72599 0.0110003 5.16984 0.0705279C5.61369 0.130055 6.01784 0.357476 6.29908 0.705975L8.09408 2.93098C8.24221 3.11455 8.3517 3.32617 8.41597 3.55313C8.48024 3.78009 8.49796 4.01771 8.46807 4.25169C8.43818 4.48567 8.36129 4.7112 8.24203 4.91471C8.12277 5.11823 7.9636 5.29554 7.77408 5.43598L7.10408 5.93198C8.23729 8.128 10.0261 9.91676 12.2221 11.05L12.7191 10.38C12.8595 10.1906 13.0368 10.0316 13.2402 9.91239C13.4436 9.79322 13.669 9.71639 13.9029 9.6865C14.1368 9.65661 14.3743 9.67429 14.6011 9.73847C14.828 9.80265 15.0395 9.912 15.2231 10.06L17.4481 11.855C17.7969 12.1362 18.0245 12.5406 18.084 12.9847C18.1435 13.4288 18.0305 13.8788 17.7681 14.242L16.4941 16.006C15.9898 16.7039 15.2607 17.207 14.4292 17.4308C13.5977 17.6546 12.7146 17.5855 11.9281 17.235L11.1701 16.897Z" fill="black" stroke-width="2"/>
</svg>
