<svg width="22" height="23" viewBox="0 0 22 23" fill="none" xmlns="http://www.w3.org/2000/svg">
<path d="M5.51398 1.49997C4.20998 1.62897 3.33198 1.91897 2.67598 2.57597C1.50098 3.75297 1.50098 5.64797 1.50098 9.43897V13.459C1.50098 17.249 1.50098 19.145 2.67598 20.323C3.85098 21.501 5.74298 21.5 9.52598 21.5H11.533C15.316 21.5 17.208 21.5 18.383 20.323C19.45 19.253 19.549 17.606 19.558 14.477" stroke="black" stroke-width="2" stroke-linecap="round" stroke-linejoin="round"/>
<path d="M9.52596 6.49997L10.529 9.99997C11.089 11.11 11.792 11.4 13.539 11.5C14.928 11.466 15.734 11.302 16.422 10.704C16.891 10.296 17.103 9.68097 17.206 9.06897L17.55 6.99997M20.058 4.99997V9.99997M7.60096 4.43297C9.18796 3.11597 10.602 2.40897 13.535 1.63097C13.8658 1.54361 14.214 1.54533 14.544 1.63597C17.14 2.34997 18.542 2.98397 20.42 4.39397C20.5 4.45397 20.524 4.56597 20.468 4.64897C19.855 5.55097 18.486 6.28197 15.128 7.58397C14.4285 7.85309 13.6534 7.84881 12.957 7.57197C9.38096 6.15197 7.73696 5.39197 7.53696 4.60297C7.53046 4.57148 7.53302 4.53879 7.54435 4.5087C7.55568 4.47861 7.57531 4.45235 7.60096 4.43297Z" stroke="black" stroke-width="2" stroke-linecap="round" stroke-linejoin="round"/>
</svg>
