<svg width="24" height="25" viewBox="0 0 24 25" fill="none" xmlns="http://www.w3.org/2000/svg">
<path d="M7 5.49997C7 4.4391 7.42143 3.42169 8.17157 2.67154C8.92172 1.9214 9.93913 1.49997 11 1.49997C12.0609 1.49997 13.0783 1.9214 13.8284 2.67154C14.5786 3.42169 15 4.4391 15 5.49997H18C18.2652 5.49997 18.5196 5.60533 18.7071 5.79286C18.8946 5.9804 19 6.23475 19 6.49997V9.49997C20.0609 9.49997 21.0783 9.9214 21.8284 10.6715C22.5786 11.4217 23 12.4391 23 13.5C23 14.5608 22.5786 15.5783 21.8284 16.3284C21.0783 17.0785 20.0609 17.5 19 17.5V20.5C19 20.7652 18.8946 21.0195 18.7071 21.2071C18.5196 21.3946 18.2652 21.5 18 21.5H4C3.73478 21.5 3.48043 21.3946 3.29289 21.2071C3.10536 21.0195 3 20.7652 3 20.5V6.49997C3 6.23475 3.10536 5.9804 3.29289 5.79286C3.48043 5.60533 3.73478 5.49997 4 5.49997H7ZM11 3.49997C10.68 3.49989 10.3646 3.57661 10.0804 3.72369C9.79612 3.87077 9.55133 4.08391 9.36655 4.34521C9.18177 4.60651 9.06239 4.90834 9.01845 5.22534C8.9745 5.54234 9.00727 5.86526 9.114 6.16697C9.16729 6.31788 9.18359 6.47937 9.16152 6.63788C9.13945 6.7964 9.07965 6.94729 8.98716 7.0779C8.89466 7.20851 8.77218 7.31501 8.62998 7.38845C8.48779 7.4619 8.33004 7.50014 8.17 7.49997H5V19.5H17V16.33C16.9998 16.1699 17.0381 16.0122 17.1115 15.87C17.185 15.7278 17.2915 15.6053 17.4221 15.5128C17.5527 15.4203 17.7036 15.3605 17.8621 15.3385C18.0206 15.3164 18.1821 15.3327 18.333 15.386C18.5417 15.462 18.764 15.5 19 15.5C19.2912 15.4998 19.5788 15.436 19.8427 15.3131C20.1067 15.1902 20.3406 15.0112 20.5282 14.7885C20.7158 14.5658 20.8525 14.3048 20.9288 14.0239C21.005 13.7429 21.019 13.4486 20.9698 13.1616C20.9205 12.8747 20.8092 12.6019 20.6436 12.3624C20.478 12.123 20.2621 11.9225 20.011 11.7751C19.7599 11.6278 19.4796 11.537 19.1898 11.5091C18.9 11.4813 18.6076 11.5171 18.333 11.614C18.1821 11.6673 18.0206 11.6836 17.8621 11.6615C17.7036 11.6394 17.5527 11.5796 17.4221 11.4871C17.2915 11.3946 17.185 11.2721 17.1115 11.13C17.0381 10.9878 16.9998 10.83 17 10.67V7.49997H13.83C13.67 7.50014 13.5122 7.4619 13.37 7.38845C13.2278 7.31501 13.1053 7.20851 13.0128 7.0779C12.9203 6.94729 12.8606 6.7964 12.8385 6.63788C12.8164 6.47937 12.8327 6.31788 12.886 6.16697C12.962 5.95897 13 5.73664 13 5.49997C13 4.96954 12.7893 4.46083 12.4142 4.08576C12.0391 3.71068 11.5304 3.49997 11 3.49997Z" fill="black"/>
</svg>
