<svg width="32" height="19" viewBox="0 0 32 19" fill="none" xmlns="http://www.w3.org/2000/svg">
<path d="M0 3.24999C0 1.52636 1.40136 0.125 3.12499 0.125H28.1249C29.8486 0.125 31.2499 1.52636 31.2499 3.24999V15.75C31.2499 17.4736 29.8486 18.875 28.1249 18.875H3.12499C1.40136 18.875 0 17.4736 0 15.75V3.24999ZM15.625 3.24999V15.75H28.1249V3.24999H15.625ZM8.70604 5.58886C8.54979 5.23729 8.19823 5.0078 7.81249 5.0078C7.42674 5.0078 7.07518 5.23729 6.91893 5.58886L3.79394 12.6201C3.57421 13.1133 3.79882 13.6894 4.29198 13.9092C4.78515 14.1289 5.36132 13.9043 5.58104 13.4111L6.01561 12.4297H9.60936L10.0439 13.4111C10.2637 13.9043 10.8398 14.124 11.333 13.9092C11.8262 13.6943 12.0459 13.1133 11.831 12.6201L8.70604 5.58886ZM7.81249 8.3867L8.74022 10.4765H6.88475L7.81249 8.3867ZM21.875 5.0078C22.4121 5.0078 22.8515 5.44726 22.8515 5.98436V6.17968H25.7812C26.3183 6.17968 26.7578 6.61913 26.7578 7.15624C26.7578 7.69334 26.3183 8.1328 25.7812 8.1328H25.6835L25.6054 8.35252C25.1709 9.54393 24.5117 10.6279 23.6718 11.5459C23.7158 11.5752 23.7597 11.5996 23.8037 11.624L24.7265 12.1758C25.1904 12.4541 25.3369 13.0547 25.0634 13.5136C24.79 13.9726 24.1845 14.124 23.7255 13.8506L22.8027 13.2988C22.583 13.167 22.373 13.0302 22.163 12.8838C21.6455 13.25 21.0937 13.5674 20.5029 13.831L20.3271 13.9092C19.8339 14.1289 19.2578 13.9043 19.0381 13.4111C18.8183 12.9179 19.0429 12.3418 19.5361 12.122L19.7119 12.0439C20.0244 11.9023 20.3271 11.7461 20.6152 11.5654L20.0195 10.9697C19.6386 10.5888 19.6386 9.96873 20.0195 9.58787C20.4004 9.20701 21.0205 9.20701 21.4013 9.58787L22.1142 10.3008L22.1386 10.3252C22.7441 9.68553 23.2373 8.94334 23.5937 8.12791L21.875 8.1328H18.3593C17.8222 8.1328 17.3828 7.69334 17.3828 7.15624C17.3828 6.61913 17.8222 6.17968 18.3593 6.17968H20.8984V5.98436C20.8984 5.44726 21.3379 5.0078 21.875 5.0078Z" fill="black"/>
</svg>
