<svg stroke-width="5" width="22" height="22" viewBox="0 0 22 22" fill="none" xmlns="http://www.w3.org/2000/svg">
<path  d="M10.9999 11C9.53325 11 8.2777 10.4778 7.23325 9.43331C6.18881 8.38887 5.66659 7.13331 5.66659 5.66665C5.66659 4.19998 6.18881 2.94442 7.23325 1.89998C8.2777 0.855535 9.53325 0.333313 10.9999 0.333313C12.4666 0.333313 13.7221 0.855535 14.7666 1.89998C15.811 2.94442 16.3333 4.19998 16.3333 5.66665C16.3333 7.13331 15.811 8.38887 14.7666 9.43331C13.7221 10.4778 12.4666 11 10.9999 11ZM0.333252 21.6666V17.9333C0.333252 17.1778 0.527919 16.4835 0.917252 15.8506C1.30659 15.2178 1.82303 14.7342 2.46659 14.4C3.84436 13.7111 5.24436 13.1946 6.66659 12.8506C8.08881 12.5066 9.53325 12.3342 10.9999 12.3333C12.4666 12.3324 13.911 12.5049 15.3333 12.8506C16.7555 13.1964 18.1555 13.7129 19.5333 14.4C20.1777 14.7333 20.6946 15.2169 21.0839 15.8506C21.4733 16.4844 21.6675 17.1786 21.6666 17.9333V21.6666H0.333252ZM2.99992 19H18.9999V17.9333C18.9999 17.6889 18.939 17.4666 18.8173 17.2666C18.6955 17.0666 18.5341 16.9111 18.3333 16.8C17.1333 16.2 15.9221 15.7502 14.6999 15.4506C13.4777 15.1511 12.2444 15.0009 10.9999 15C9.75547 14.9991 8.52214 15.1493 7.29992 15.4506C6.0777 15.752 4.86659 16.2018 3.66659 16.8C3.46659 16.9111 3.30525 17.0666 3.18259 17.2666C3.05992 17.4666 2.99903 17.6889 2.99992 17.9333V19ZM10.9999 8.33331C11.7333 8.33331 12.3613 8.07242 12.8839 7.55065C13.4066 7.02887 13.6675 6.40087 13.6666 5.66665C13.6657 4.93242 13.4048 4.30487 12.8839 3.78398C12.363 3.26309 11.735 3.00176 10.9999 2.99998C10.2648 2.9982 9.63725 3.25954 9.11725 3.78398C8.59725 4.30842 8.33592 4.93598 8.33325 5.66665C8.33059 6.39731 8.59192 7.02531 9.11725 7.55065C9.64259 8.07598 10.2701 8.33687 10.9999 8.33331Z" fill="black"/>
</svg>
