<svg width="18" height="21" viewBox="0 0 18 21" fill="none" xmlns="http://www.w3.org/2000/svg">
<path d="M16 2.49997H11.82C11.4 1.33997 10.3 0.499969 9 0.499969C7.7 0.499969 6.6 1.33997 6.18 2.49997H2C1.46957 2.49997 0.960859 2.71068 0.585786 3.08576C0.210714 3.46083 0 3.96954 0 4.49997V18.5C0 19.0304 0.210714 19.5391 0.585786 19.9142C0.960859 20.2893 1.46957 20.5 2 20.5H16C16.5304 20.5 17.0391 20.2893 17.4142 19.9142C17.7893 19.5391 18 19.0304 18 18.5V4.49997C18 3.96954 17.7893 3.46083 17.4142 3.08576C17.0391 2.71068 16.5304 2.49997 16 2.49997ZM9 2.49997C9.26522 2.49997 9.51957 2.60533 9.70711 2.79286C9.89464 2.9804 10 3.23475 10 3.49997C10 3.76519 9.89464 4.01954 9.70711 4.20708C9.51957 4.39461 9.26522 4.49997 9 4.49997C8.73478 4.49997 8.48043 4.39461 8.29289 4.20708C8.10536 4.01954 8 3.76519 8 3.49997C8 3.23475 8.10536 2.9804 8.29289 2.79286C8.48043 2.60533 8.73478 2.49997 9 2.49997ZM4 6.49997H14V4.49997H16V18.5H2V4.49997H4V6.49997Z" fill="black" stroke-width="2"/>
</svg>
