<svg width="25" height="25" viewBox="0 0 25 25" fill="none" xmlns="http://www.w3.org/2000/svg">
<path d="M20.9636 1.82286L22.4155 4.55724L25.5209 4.93459L23.2422 6.98811L23.6979 10.026L20.9636 8.31702L18.2292 10.026L18.6849 6.98811L16.4062 4.93459L19.5964 4.55724L20.9636 1.82286Z" fill="black"/>
<path d="M20.7056 12.0759L18.9392 11.622C18.6226 12.8417 17.9516 13.9403 17.0109 14.7788C16.0702 15.6174 14.9021 16.1583 13.6541 16.3333C12.4061 16.5082 11.1343 16.3094 9.99927 15.7619C8.86425 15.2143 7.91698 14.3427 7.27712 13.257C6.63726 12.1714 6.33353 10.9205 6.40429 9.66227C6.47506 8.40408 6.91715 7.19509 7.67471 6.18804C8.43227 5.18099 9.47131 4.42106 10.6606 4.00426C11.8498 3.58746 13.1359 3.5325 14.3564 3.8463L14.8112 2.0808C13.032 1.61801 11.1489 1.76697 9.46461 2.50373C7.78031 3.24049 6.3927 4.52225 5.52488 6.14292C4.65706 7.76359 4.35945 9.62901 4.6799 11.4393C5.00035 13.2495 5.92025 14.8994 7.29168 16.1237V27.3438L12.7604 23.6979L18.2292 27.3438V16.1401C19.4399 15.0613 20.302 13.6464 20.7056 12.0759ZM16.4063 23.9376L12.7604 21.5068L9.1146 23.9376V17.3633C10.2457 17.9318 11.4939 18.2283 12.7598 18.2293C14.0257 18.2302 15.2744 17.9356 16.4063 17.3687V23.9376Z" fill="black" stroke-width="2"/>
</svg>
