<svg width="20" height="19" viewBox="0 0 20 19" fill="none" xmlns="http://www.w3.org/2000/svg">
<path d="M12 0.0930023C12.7956 0.0930023 13.5587 0.409073 14.1213 0.971682C14.6839 1.53429 15 2.29735 15 3.093H18C18.5304 3.093 19.0391 3.30372 19.4142 3.67879C19.7893 4.05386 20 4.56257 20 5.093V16.093C20 16.6234 19.7893 17.1321 19.4142 17.5072C19.0391 17.8823 18.5304 18.093 18 18.093H2C1.46957 18.093 0.960859 17.8823 0.585786 17.5072C0.210714 17.1321 0 16.6234 0 16.093V5.093C0 4.56257 0.210714 4.05386 0.585786 3.67879C0.960859 3.30372 1.46957 3.093 2 3.093H5C5 2.29735 5.31607 1.53429 5.87868 0.971682C6.44129 0.409073 7.20435 0.0930023 8 0.0930023H12ZM9 9.093H2V16.093H18V9.093H11V10.093C10.9997 10.3479 10.9021 10.593 10.7272 10.7784C10.5522 10.9637 10.313 11.0752 10.0586 11.0902C9.80416 11.1051 9.55362 11.0223 9.35817 10.8587C9.16271 10.6951 9.0371 10.4631 9.007 10.21L9 10.093V9.093ZM18 5.093H2V7.093H18V5.093ZM12 2.093H8C7.75507 2.09303 7.51866 2.18296 7.33563 2.34572C7.15259 2.50848 7.03566 2.73275 7.007 2.976L7 3.093H13C13 2.84807 12.91 2.61167 12.7473 2.42863C12.5845 2.2456 12.3603 2.12866 12.117 2.1L12 2.093Z" fill="black"/>
</svg>
